<?xml version="1.0" encoding="UTF-8"?>
<svg version="1.1" xmlns="http://www.w3.org/2000/svg" width="512" height="512">
<path d="M0 0 C9.92370766 6.2937969 16.76550396 14.17418516 20.02653313 25.47470093 C21.39540573 32.52919115 21.0692885 39.78933034 21.04907227 46.94921875 C21.05482178 48.78979436 21.06190741 50.6303662 21.07022095 52.47093201 C21.08527487 56.4164886 21.09111349 60.36191039 21.08969307 64.30749512 C21.08765356 70.54263793 21.107262 76.77760001 21.12986755 83.01269531 C21.1707552 95.11014784 21.18943872 107.20758582 21.20603943 119.30509186 C21.2284325 134.73311521 21.26182581 150.16109677 21.31323856 165.58905125 C21.33319703 171.79211383 21.34274248 177.99508102 21.34419072 184.19817448 C21.34693214 188.04525344 21.35774136 191.89227922 21.37070084 195.73933601 C21.37499606 197.52843803 21.37583012 199.31755205 21.37302589 201.10665703 C21.36964758 203.54030429 21.37835518 205.97361274 21.39015198 208.40722656 C21.38418034 209.47966724 21.38418034 209.47966724 21.37808806 210.57377338 C21.30537254 214.57253865 21.30537254 214.57253865 23.6484375 217.6796875 C25.75664547 217.3611698 25.75664547 217.3611698 27.6484375 216.6796875 C28.99094041 212.18129344 30.0784804 207.77290019 30.88705444 203.14141846 C31.11120529 201.86874115 31.33535614 200.59606384 31.56629944 199.28482056 C31.8077621 197.89203806 32.04916956 196.49924599 32.29052734 195.10644531 C32.54999078 193.62568158 32.80981173 192.14498046 33.06996155 190.66433716 C33.62792812 187.48523881 34.18372512 184.30577155 34.73792648 181.12601471 C35.61617715 176.08918586 36.50146519 171.05360975 37.38809204 166.01824951 C39.90785595 151.70251171 42.42080817 137.3855936 44.92089844 123.06640625 C46.3030348 115.15061807 47.69237127 107.23612788 49.0895344 99.32297778 C49.97118793 94.32722499 50.84411051 89.33005287 51.71047568 84.33162737 C52.25382661 81.20955321 52.80563419 78.08901668 53.35975456 74.96883774 C53.61314709 73.53244115 53.86317466 72.09544579 54.10939598 70.65780258 C56.74752427 55.27811753 60.41004987 42.06386101 73.6484375 32.6796875 C83.77775861 26.59408746 95.27431368 24.7009055 106.85546875 27.4375 C117.58162701 31.16450985 125.76237733 37.97171976 131.6484375 47.6796875 C138.7068042 62.83888736 135.00635983 78.20066283 132.17602539 93.9519043 C131.80232516 96.07846299 131.42959468 98.2051923 131.05775452 100.33207703 C130.0512315 106.07273445 129.0310193 111.8108807 128.00806355 117.54862952 C126.9385555 123.56011513 125.88120602 129.57373928 124.82237244 135.58711243 C123.04497427 145.67129012 121.25934157 155.75398053 119.46801758 165.83569336 C117.16654743 178.7887559 114.87829667 191.74411674 112.59432316 204.70027447 C110.63071965 215.83876836 108.66161898 226.97628926 106.69134974 238.11360574 C106.05764999 241.69674254 105.42460861 245.27999526 104.79161263 248.86325645 C103.7991771 254.47892762 102.80333613 260.09398478 101.80480003 265.7085743 C101.43808472 267.77323875 101.07243632 269.83809302 100.70790863 271.90314484 C100.21196645 274.71144572 99.71217586 277.51903393 99.21131897 280.32646179 C99.06637578 281.15221338 98.92143258 281.97796498 98.77209717 282.82873935 C97.7626622 288.4512381 97.7626622 288.4512381 96.6484375 290.6796875 C97.256875 290.8034375 97.8653125 290.9271875 98.4921875 291.0546875 C105.65854661 292.74088964 111.75299828 295.54331308 118.1640625 299.07421875 C121.68105976 301.08014499 121.68105976 301.08014499 125.59751892 301.52896118 C128.35153904 300.38853717 129.88615963 298.77175323 131.96704102 296.63818359 C133.23470055 295.35081802 133.23470055 295.35081802 134.52796936 294.03744507 C135.88890968 292.63445663 135.88890968 292.63445663 137.27734375 291.203125 C138.23080582 290.23388753 139.18524459 289.26560997 140.14060974 288.29824829 C144.18759113 284.19641908 148.21485098 280.07538597 152.23950195 275.95166016 C154.70578789 273.42605806 157.18228394 270.91080638 159.66453362 268.40089798 C161.04987523 266.99372342 162.42327319 265.57482166 163.79627991 264.15560913 C171.27949686 256.58622535 179.40288504 250.47366261 189.4609375 246.8046875 C190.49863281 246.41539062 191.53632813 246.02609375 192.60546875 245.625 C208.95777201 240.54508037 225.50110479 243.88764907 240.30078125 251.65625 C246.58783047 255.45635676 251.79182117 259.78555028 255.7734375 265.9921875 C257.88453252 274.88894509 257.4210093 281.88951209 252.6484375 289.6796875 C250.43228173 292.42729161 247.97828352 294.88677971 245.46609497 297.36323547 C244.74159932 298.09326552 244.01710367 298.82329557 243.27065361 299.57544774 C240.8514617 302.00820313 238.41829485 304.42646533 235.98486328 306.8449707 C234.24262672 308.59099218 232.50124918 310.33787117 230.76066589 312.08554077 C226.52633474 316.332379 222.28279421 320.56980646 218.03468449 324.80284659 C213.07682831 329.7437892 208.12908272 334.69480575 203.18154667 339.64607849 C194.34233533 348.49116454 185.49314876 357.32620413 176.63867188 366.15600586 C168.07122083 374.69958465 159.51217863 383.25147694 150.96191406 391.81225586 C141.63380821 401.15181217 132.30091639 410.48653842 122.95989406 419.81317776 C121.96044139 420.81110477 120.96099137 421.80903443 119.96154404 422.80696678 C119.46991822 423.29783478 118.9782924 423.78870279 118.47176883 424.29444558 C115.03074732 427.73075233 111.59299494 431.17030835 108.15646744 434.61110878 C103.51306988 439.25999416 98.86150164 443.90059755 94.2046299 448.53599167 C92.50506213 450.23003705 90.80797265 451.92657338 89.11367989 453.62589455 C56.28007048 486.54464346 17.6620552 508.7880348 -29.88449097 508.92816162 C-55.90889818 508.94511674 -55.90889818 508.94511674 -68.3515625 505.6796875 C-69.52549561 505.38167236 -69.52549561 505.38167236 -70.72314453 505.07763672 C-110.4638927 494.74581611 -144.95766981 470.25887125 -166.58984375 435.125 C-176.20073929 418.66517502 -182.59382363 401.2645932 -188.9765625 383.3671875 C-189.90005328 380.79246001 -190.82592725 378.21859203 -191.75195312 375.64477539 C-193.67167045 370.30670764 -195.58758313 364.96729064 -197.50097656 359.62695312 C-201.49725633 348.47593518 -205.524105 337.33598091 -209.55563354 326.19766235 C-210.42115996 323.80633097 -211.28633204 321.41487131 -212.15115356 319.02328491 C-218.83279973 300.54826941 -225.60408776 282.1076521 -232.4140625 263.6796875 C-238.23039521 247.93940647 -244.02081918 232.19278749 -249.6015625 216.3671875 C-249.848992 215.66682373 -250.09642151 214.96645996 -250.35134888 214.24487305 C-254.86308767 201.4528549 -258.49030942 188.41302393 -253.2890625 175.1796875 C-247.97885485 164.36698055 -240.8370099 156.72491192 -229.29296875 152.58203125 C-217.80173384 149.43475035 -207.47504261 149.88063139 -196.7890625 155.3046875 C-182.35084713 163.69337129 -177.59153929 177.26444562 -172.2421875 192.3984375 C-171.78545303 193.67233827 -171.32797919 194.94597417 -170.86981201 196.21936035 C-169.68057477 199.52967458 -168.49978321 202.84293107 -167.3213501 206.15710449 C-165.42415806 211.48816102 -163.51400821 216.81458607 -161.603508 222.1408844 C-160.94163826 223.99004887 -160.28380031 225.84065483 -159.6260376 227.69128418 C-159.22511902 228.81345337 -158.82420044 229.93562256 -158.41113281 231.09179688 C-158.06060852 232.07708374 -157.71008423 233.06237061 -157.34893799 234.07751465 C-156.05801624 237.48119284 -156.05801624 237.48119284 -154.3515625 240.6796875 C-151.44151347 241.76192116 -151.44151347 241.76192116 -148.3515625 241.6796875 C-146.53028399 240.61353416 -146.53028399 240.61353416 -145.3515625 238.6796875 C-144.78488811 229.52386908 -147.20106197 219.93771834 -148.85180664 210.96362305 C-149.10870369 209.5395156 -149.36498723 208.11529737 -149.62071228 206.690979 C-150.1677612 203.65015241 -150.71860053 200.61004705 -151.27238655 197.57044029 C-152.15040029 192.74839551 -153.01677779 187.92430311 -153.88121033 183.09980774 C-156.33941414 169.38991528 -158.81183231 155.68261455 -161.2980957 141.9777832 C-162.67481427 134.38843041 -164.04139655 126.79731974 -165.397376 119.20423347 C-166.25166552 114.42382214 -167.11808989 109.64583327 -167.99405491 104.86934888 C-168.53943817 101.87867251 -169.07296454 98.88596545 -169.60341835 95.89260864 C-169.96382595 93.87831547 -170.33791852 91.86648523 -170.712677 89.85481262 C-173.40739255 74.47821963 -173.96034055 60.67978621 -165.6640625 46.9296875 C-159.96814071 38.92963655 -151.48945504 33.43778911 -141.97265625 31.09375 C-129.69850924 29.15476403 -119.08260754 31.30329036 -108.671875 37.9609375 C-97.52447635 46.21826983 -93.93705588 58.40129959 -91.71484375 71.55078125 C-91.47495999 72.90252963 -91.23370578 74.25403532 -90.99128723 75.60533142 C-90.42808537 78.761716 -89.87482504 81.9196711 -89.32720947 85.07879639 C-88.21294743 91.49643199 -87.06741747 97.90842512 -85.92333984 104.32080078 C-83.47275024 118.07394311 -81.0452665 131.83109417 -78.62291539 145.58922899 C-77.65110143 151.10808864 -76.67714278 156.62656818 -75.70266265 162.1449576 C-74.63691 168.18042257 -73.57246431 174.21611718 -72.50863075 180.2519207 C-72.0604 182.79445162 -71.61186544 185.336929 -71.16301537 187.87935066 C-70.54008635 191.4090345 -69.91864006 194.93897621 -69.29760742 198.46899414 C-69.11426346 199.50629166 -68.93091949 200.54358917 -68.74201965 201.61231995 C-67.861567 206.62610027 -67.03343921 211.63492176 -66.3515625 216.6796875 C-64.0415625 216.6796875 -61.7315625 216.6796875 -59.3515625 216.6796875 C-59.35009594 215.71577182 -59.34862938 214.75185614 -59.34711838 213.75873089 C-59.31048616 190.27973432 -59.25098772 166.80087998 -59.16765976 143.32200146 C-59.12788924 131.96767637 -59.09548661 120.61342039 -59.08056641 109.2590332 C-59.06753964 99.35990599 -59.04054866 89.46093097 -58.99694943 79.56188947 C-58.97435784 74.32279732 -58.95865045 69.08389272 -58.95967865 63.84474754 C-58.96042661 58.90757281 -58.94242098 53.97081232 -58.91039467 49.03374481 C-58.90191698 47.22748264 -58.90013118 45.42117389 -58.90575981 43.61490059 C-58.94563302 28.84526524 -56.98520907 17.95214649 -46.609375 6.80859375 C-34.4689493 -4.90364266 -15.12983893 -7.50134871 0 0 Z M-36.2890625 21.4921875 C-40.27281209 27.64889141 -41.80311987 33.33098007 -41.72337341 40.68713379 C-41.72719798 41.45194895 -41.73102254 42.21676412 -41.734963 43.0047555 C-41.74418548 45.54567859 -41.73229654 48.08604777 -41.72045898 50.62695312 C-41.72292903 52.45749639 -41.72676952 54.28803823 -41.73187256 56.11857605 C-41.74019079 60.04997989 -41.73941982 63.98123877 -41.73168755 67.91264343 C-41.72007822 74.13246326 -41.73228883 80.35209765 -41.74830627 86.57189941 C-41.7844535 102.01811618 -41.79073016 117.46432826 -41.78820801 132.9105835 C-41.78649622 144.92151372 -41.79362913 156.93229192 -41.82818657 168.94317961 C-41.8449645 175.12293173 -41.84319997 181.30231274 -41.82736385 187.48206329 C-41.82156036 191.32947889 -41.83231852 195.17671908 -41.84761047 199.02410316 C-41.85133136 200.80423715 -41.84824409 202.58440079 -41.83773994 204.36450768 C-41.82432429 206.80086028 -41.83561556 209.23593891 -41.85276794 211.67224121 C-41.84296117 212.37108885 -41.83315439 213.06993649 -41.82305044 213.78996134 C-41.91322719 220.01368637 -44.01630885 225.3265734 -48.39453125 229.73828125 C-55.05623813 234.02167383 -60.69632638 235.61739327 -68.5390625 233.9921875 C-74.09294461 232.32491872 -78.24559963 229.54283478 -81.40758133 224.60967827 C-83.38563658 220.56549976 -83.97268532 216.11612339 -84.76318359 211.71704102 C-85.074208 210.07601709 -85.074208 210.07601709 -85.39151573 208.40184116 C-86.06199933 204.83071263 -86.70943827 201.25601784 -87.3515625 197.6796875 C-87.67357006 195.90300753 -87.67357006 195.90300753 -88.00208282 194.09043503 C-89.37974576 186.46714197 -90.72106634 178.83773338 -92.04802322 171.2054882 C-92.78435854 166.970528 -93.52653581 162.7366029 -94.2696228 158.50282288 C-96.37779746 146.48706467 -98.4802275 134.47031282 -100.57324219 122.4519043 C-101.73807166 115.76356747 -102.90844956 109.07622567 -104.08489072 102.38992125 C-104.82368926 98.18916266 -105.55575285 93.98730656 -106.28267312 89.78447711 C-106.84186907 86.5634709 -107.41122121 83.34425774 -107.97900391 80.12475586 C-108.17542984 78.97719818 -108.37185577 77.8296405 -108.57423401 76.64730835 C-110.36739603 66.58360912 -112.69376144 58.81163098 -120.3515625 51.6796875 C-125.34519305 48.38601628 -130.67352261 47.07419582 -136.58203125 48.046875 C-143.81828486 50.06455673 -149.11694589 54.36380478 -153.2890625 60.5546875 C-156.44860829 69.84746923 -154.7083609 78.38421614 -153.00244141 87.75878906 C-152.73713157 89.2690379 -152.47292503 90.77948091 -152.20973206 92.2901001 C-151.49562875 96.37032739 -150.76616837 100.44767209 -150.03380251 104.52465534 C-149.26859553 108.7995089 -148.5175773 113.07685408 -147.76498413 117.35394287 C-146.33833542 125.44912735 -144.8988602 133.54197587 -143.45479333 141.6340692 C-141.8144426 150.82994245 -140.18906301 160.02844204 -138.5646565 169.22714281 C-136.17017978 182.78392086 -133.7700182 196.33968936 -131.35580254 209.89296722 C-131.0948172 211.35827118 -130.83399949 212.82360501 -130.57336235 214.28897095 C-130.2173163 216.29025928 -129.86046336 218.291404 -129.50357056 220.2925415 C-129.30408625 221.41189213 -129.10460194 222.53124275 -128.89907265 223.68451309 C-128.54760135 225.60724974 -128.18002613 227.52715156 -127.79225731 229.4428978 C-126.1164396 237.94867486 -127.78855045 244.75978671 -132.4765625 251.9296875 C-138.00460123 257.21737672 -143.29557034 258.91485 -150.9140625 259.1796875 C-157.38515091 258.93834155 -162.0437457 257.85925476 -166.7746582 253.31176758 C-172.61601796 246.20959332 -175.08654451 237.4143505 -178.1015625 228.8671875 C-178.71383184 227.16612595 -179.32761537 225.46560869 -179.94287109 223.765625 C-181.17464779 220.35700889 -182.39987404 216.94617468 -183.61816406 213.53271484 C-186.04326001 206.73812345 -188.50010559 199.95573354 -190.9765625 193.1796875 C-191.36553711 192.09067139 -191.75451172 191.00165527 -192.15527344 189.87963867 C-194.74019262 182.79384549 -197.08591251 176.89077834 -203.4140625 172.3671875 C-204.08566406 171.87605469 -204.75726563 171.38492188 -205.44921875 170.87890625 C-210.32552793 167.80492901 -215.7958707 168.15384013 -221.3515625 168.6796875 C-228.0441045 170.50070846 -232.45048525 175.1252451 -236.3515625 180.6796875 C-239.19598781 186.61587945 -239.11437861 192.83799754 -237.13671875 199.02050781 C-236.57550953 200.60427962 -236.00048735 202.18320308 -235.4140625 203.7578125 C-234.94731865 205.05772377 -234.94731865 205.05772377 -234.47114563 206.38389587 C-233.44332419 209.23701175 -232.39756344 212.08319168 -231.3515625 214.9296875 C-230.61762015 216.95573302 -229.88481109 218.98218939 -229.15307617 221.0090332 C-227.26315384 226.23470197 -225.3584741 231.45485718 -223.449646 236.67364502 C-221.77999996 241.24436021 -220.12246791 245.81944563 -218.46484375 250.39453125 C-215.87245824 257.54455103 -213.27055352 264.69104908 -210.6640625 271.8359375 C-207.56598181 280.33063077 -204.48559778 288.83161155 -201.4140625 297.3359375 C-192.77616769 321.2498137 -184.11418571 345.15452847 -175.34384155 369.02017212 C-174.44595301 371.4644098 -173.54912938 373.90903899 -172.6534729 376.35409546 C-166.77362158 392.40961604 -166.77362158 392.40961604 -160.515625 408.3203125 C-160.12354355 409.29116539 -160.12354355 409.29116539 -159.72354126 410.28163147 C-146.33238783 442.5373724 -117.44060053 468.33352675 -85.65234375 481.71875 C-51.15232237 495.4475878 -13.64479371 495.01500415 20.7734375 481.3671875 C37.52846353 473.97123595 51.79100021 464.42428635 65.09315491 451.82646179 C65.77960179 451.17926861 66.46604868 450.53207542 67.17329699 449.86527032 C75.11441773 442.34306127 82.85884986 434.62515406 90.59545898 426.89379883 C92.22160605 425.2722952 93.84794445 423.65098343 95.47445679 422.02984619 C99.83748414 417.67977565 104.19731718 413.32651843 108.55610919 408.97220445 C111.28281997 406.24844441 114.01010827 403.52526389 116.73756599 400.80225182 C124.31033443 393.2415478 131.882271 385.68001455 139.45071316 378.11497974 C139.93155552 377.63435695 140.41239788 377.15373415 140.90781123 376.65854703 C141.38965258 376.17692395 141.87149394 375.69530087 142.36793655 375.19908315 C143.34400367 374.22345947 144.32007235 373.24783736 145.29614258 372.2722168 C145.78028368 371.78829712 146.26442478 371.30437745 146.76323683 370.80579355 C154.648486 362.92451223 162.54049535 355.05003671 170.43534517 347.17837373 C178.56739923 339.0700094 186.69370483 330.95592995 194.81463677 322.83642405 C199.36430068 318.28780903 203.9163722 313.74166674 208.47442436 309.20145607 C212.74678888 304.94549846 217.01202527 300.68252745 221.27178574 296.41395569 C222.83776922 294.84719857 224.40633682 293.28301957 225.97762108 291.7215786 C228.115993 289.59582443 230.24498987 287.46110828 232.37181091 285.32380676 C232.99999062 284.70368346 233.62817034 284.08356015 234.2753858 283.44464523 C234.84226993 282.87117124 235.40915407 282.29769726 235.99321651 281.70684528 C236.48539447 281.21526442 236.97757242 280.72368355 237.48466486 280.2172063 C238.89286363 278.3567638 239.39697911 276.99778185 239.6484375 274.6796875 C233.2595928 266.64210869 223.28824955 262.09262864 213.2734375 260.8671875 C202.43294958 260.18126942 191.88584014 263.39718316 183.51379395 270.48753357 C177.18388099 276.18754084 171.11208566 282.09854273 165.1171875 288.1484375 C164.15007843 289.11996649 163.18266501 290.09119259 162.21496582 291.06213379 C159.18990951 294.09846007 156.16889583 297.13878817 153.1484375 300.1796875 C149.61640607 303.73538087 146.08270424 307.2893829 142.54481506 310.83924866 C141.13683019 312.25370454 139.73190548 313.67120445 138.32702637 315.08874512 C137.47854126 315.94053345 136.63005615 316.79232178 135.75585938 317.66992188 C134.63528137 318.7983551 134.63528137 318.7983551 133.49206543 319.94958496 C131.19589607 322.10436271 130.09888612 322.62607823 126.95703125 323 C122.77913074 322.59552793 120.11124554 320.82652282 116.7109375 318.5546875 C93.25949675 303.74922063 64.77631791 298.95661064 37.66796875 304.7109375 C7.28246666 311.78991849 -15.88906273 330.24363208 -32.6875 356.2109375 C-34.3515625 358.6796875 -34.3515625 358.6796875 -36.3515625 360.6796875 C-39.39158823 361.17578278 -42.30591582 361.12035799 -45.3515625 360.6796875 C-47.4140625 359.1171875 -47.4140625 359.1171875 -48.3515625 356.6796875 C-48.87033405 351.02098205 -47.70414324 347.62339555 -44.5390625 343.0546875 C-44.13598877 342.45422607 -43.73291504 341.85376465 -43.31762695 341.23510742 C-23.98965649 313.05694159 4.33007496 294.10400354 38.02746582 287.6594696 C46.38102762 286.20584165 54.69875189 286.35197669 63.1484375 286.4921875 C64.76170599 286.50729058 66.37498846 286.52096885 67.98828125 286.53320312 C71.87532396 286.56310345 75.76174372 286.61989893 79.6484375 286.6796875 C83.54904375 268.1527444 86.72538814 249.49475341 89.98015976 230.84642839 C90.79589272 226.17597402 91.61452679 221.50602816 92.43286133 216.83602905 C93.98104709 207.99861298 95.52691979 199.16079411 97.07182407 190.32280385 C99.83283344 174.52830305 102.59806227 158.7345406 105.36377621 142.94086301 C106.33043957 137.4201897 107.2961748 131.89935512 108.26108932 126.37837589 C108.86368206 122.93106994 109.46678325 119.4838531 110.07006454 116.03666759 C110.35691935 114.3972042 110.64360687 112.75771153 110.93011856 111.11818814 C112.23954835 103.62727694 113.55428284 96.13814093 114.93969727 88.66082764 C115.12877151 87.63972586 115.31784576 86.61862408 115.51264954 85.56657982 C115.84556225 83.78131141 116.18222754 81.99673512 116.52409363 80.21315956 C118.98137164 67.35573229 118.98137164 67.35573229 115.5234375 55.1171875 C110.76233855 48.89318105 105.34458206 45.1474431 97.6484375 43.6796875 C91.36617893 43.21312944 86.97191064 45.23304673 81.7890625 48.62109375 C74.52949413 55.60246699 73.16917965 64.1146569 71.53125 73.6640625 C71.24421221 75.26046462 70.95583654 76.85662663 70.66629028 78.45257568 C69.82660914 83.11735986 69.01314257 87.78640599 68.20576477 92.45687866 C67.61385459 95.87966715 67.01832392 99.30181274 66.42224121 102.72387695 C64.21176241 115.42269447 62.01451335 128.12380804 59.81996393 140.825387 C59.57771014 142.22737834 59.33538736 143.62935776 59.09299612 145.03132534 C57.73346131 152.89522627 56.38010637 160.76011479 55.04052734 168.62744141 C53.95710309 174.9900044 52.86181056 181.35039964 51.75291264 187.70857406 C51.17223687 191.04079552 50.59743159 194.37377584 50.03744125 197.70954132 C49.41516193 201.39937777 48.77224454 205.08506696 48.12451172 208.77050781 C47.94776917 209.84886398 47.77102661 210.92722015 47.58892822 212.03825378 C46.29216514 219.24455559 44.42799138 226.47943229 38.63198662 231.38707352 C32.50347323 235.57392935 25.81880398 235.54164701 18.6484375 234.6796875 C12.92250924 232.73696184 9.14320679 229.15391039 6.027565 223.99673176 C4.44691651 220.19499406 4.23030206 216.96286177 4.26989746 212.91947937 C4.26536733 212.15707862 4.2608372 211.39467787 4.2561698 210.60917407 C4.24457862 208.06438766 4.25417943 205.52013021 4.26367188 202.9753418 C4.25956518 201.1467149 4.25410373 199.31809062 4.24739075 197.48947144 C4.23567411 193.555858 4.23317849 189.62238484 4.23774719 185.68875694 C4.2445617 179.4646172 4.22867987 173.24066168 4.20935059 167.01655579 C4.17149912 153.80010962 4.15869945 140.58367955 4.1484375 127.3671875 C4.13736011 113.10861878 4.12196541 98.85013503 4.07772493 84.59162456 C4.05939695 78.40886737 4.05546641 72.22632106 4.06266022 66.04354322 C4.0641856 62.1906398 4.05337574 58.33784118 4.03928185 54.48496628 C4.03529027 52.70364465 4.03638525 50.92230292 4.04305458 49.1409893 C4.26794338 32.94429853 4.26794338 32.94429853 -3.55859375 19.1875 C-8.57156469 14.97179895 -14.47450057 12.89805914 -21.01953125 13.23046875 C-26.79615048 14.34321785 -32.3019609 17.121941 -36.2890625 21.4921875 Z " fill="#000000" transform="translate(255.3515625,3.3203125)"/>
</svg>
