<?xml version="1.0" encoding="UTF-8"?>
<svg version="1.1" xmlns="http://www.w3.org/2000/svg" width="512" height="512">
<path d="M0 0 C9.58856409 6.96466648 14.52933178 15.50784455 18.5625 26.4921875 C19.09359375 26.21503906 19.6246875 25.93789063 20.171875 25.65234375 C21.23148437 25.10900391 21.23148437 25.10900391 22.3125 24.5546875 C23.35664062 24.01521484 23.35664062 24.01521484 24.421875 23.46484375 C32.24299537 19.9110865 43.35872821 20.34091056 51.65234375 22.17578125 C54.10645794 23.11012804 56.2916152 24.17638602 58.5625 25.4921875 C59.33851563 25.91628906 60.11453125 26.34039062 60.9140625 26.77734375 C69.8437086 32.13811791 74.91233421 39.90200036 78.5625 49.4921875 C79.23796875 49.28722656 79.9134375 49.08226562 80.609375 48.87109375 C81.50140625 48.60167969 82.3934375 48.33226562 83.3125 48.0546875 C84.19421875 47.78785156 85.0759375 47.52101562 85.984375 47.24609375 C87.26054688 46.87291016 87.26054688 46.87291016 88.5625 46.4921875 C89.53123047 46.20601562 89.53123047 46.20601562 90.51953125 45.9140625 C100.87152921 43.77636503 112.14206221 45.60334662 121.16796875 51.0703125 C130.90516406 58.3120457 136.57895135 66.76555392 139.5625 78.4921875 C140.51617909 89.42712075 138.79217758 99.79856912 136.7644043 110.48657227 C136.46271934 112.13086467 136.16220687 113.77537255 135.86276245 115.42007446 C135.05430885 119.84168153 134.22954536 124.26009857 133.40149283 128.67807126 C132.53264847 133.32888852 131.67881923 137.98246265 130.82319641 142.63572693 C129.38509724 150.44523175 127.93737177 158.25289837 126.48266602 166.05932617 C124.4384844 177.02916138 122.41184986 188.00218398 120.38869226 198.97591317 C118.80808005 207.54576439 117.22285208 216.11476291 115.63671875 224.68359375 C115.38415239 226.04832632 115.38415239 226.04832632 115.12648368 227.44062924 C114.15380374 232.69467416 113.17872394 237.94826434 112.20026779 243.20123672 C111.90577573 244.78361621 111.61190828 246.3661121 111.3187542 247.94874001 C106.76027546 272.54793466 101.65651373 289.51071765 83.92089844 308.06640625 C82.65585358 309.39420315 81.4091749 310.73943158 80.1640625 312.0859375 C73.35577777 319.23350552 65.64683866 324.89148163 57.5625 330.4921875 C56.99595703 330.89083008 56.42941406 331.28947266 55.84570312 331.70019531 C51.80111392 334.4921875 51.80111392 334.4921875 49.5625 334.4921875 C49.46078491 335.05840317 49.35906982 335.62461884 49.25427246 336.20799255 C45.40875695 357.50556258 41.22717628 378.73679922 36.97949219 399.95728493 C35.90548846 405.32317254 34.83733139 410.69007951 33.78271484 416.05981445 C32.74577853 421.33902315 31.69471548 426.61523607 30.63365173 431.88964653 C30.23646808 433.87601878 29.84415176 435.86337135 29.45704651 437.85173225 C26.25944109 454.24519416 22.62445931 467.24788999 8.296875 477.1328125 C-0.87336052 481.69172959 -9.95241302 481.92985298 -19.99389648 481.89624023 C-21.54401132 481.90195272 -23.09412196 481.90892035 -24.64422607 481.91703796 C-28.82818471 481.93488712 -33.01193267 481.93381669 -37.19591784 481.92809558 C-40.69971076 481.92499189 -44.2034639 481.93110921 -47.70725113 481.93713433 C-55.97812662 481.95115073 -64.24889875 481.94964221 -72.51977539 481.93823242 C-81.02908183 481.92675253 -89.53807303 481.94083124 -98.04733795 481.9676289 C-105.37591109 481.98983715 -112.70438566 481.9964118 -120.03299004 481.99055248 C-124.40006031 481.98719412 -128.76692855 481.98952306 -133.13397026 482.00680351 C-137.24228088 482.02235277 -141.350127 482.01822954 -145.4584198 481.99949837 C-146.95832294 481.99583451 -148.45826112 481.99885603 -149.95813179 482.00938416 C-162.81160308 482.09265773 -173.04281765 479.96253456 -182.9375 471.3046875 C-192.61518762 460.41728893 -195.19551068 450.93698732 -194.4375 436.4921875 C-193.82924462 432.1395962 -192.88605921 427.90770422 -191.8671875 423.63452148 C-191.59408752 422.4341626 -191.32098755 421.23380371 -191.03961182 419.99707031 C-190.45039187 417.41618332 -189.85600933 414.83722104 -189.25201416 412.25982475 C-188.29439555 408.17169092 -187.3602737 404.07839436 -186.42919922 399.98414612 C-184.44983391 391.29518778 -182.4445638 382.61228174 -180.4375 373.9296875 C-178.26937861 364.54763256 -176.10663853 355.1644515 -173.97042274 345.77507263 C-173.04649618 341.71795633 -172.1090466 337.66429659 -171.16049194 333.61287105 C-170.43176788 330.48462113 -169.72137234 327.35219676 -169.0078125 324.22045898 C-168.74599182 323.12034988 -168.48417114 322.02024078 -168.2144165 320.88679504 C-165.99849911 311.01651891 -164.36315401 300.58003524 -169.5 291.4296875 C-169.84651611 290.79160156 -170.19303223 290.15351563 -170.55004883 289.49609375 C-171.35562439 288.01607101 -172.1728009 286.54232694 -172.99902344 285.07373047 C-174.65633675 282.09945501 -176.25562889 279.09749714 -177.8515625 276.08984375 C-181.37163379 269.46074688 -184.92561922 262.85049607 -188.49108887 256.24572754 C-189.40388669 254.55446728 -190.31573116 252.86269259 -191.22753906 251.17089844 C-196.96543012 240.52693112 -202.73995235 229.90619188 -208.63452148 219.34814453 C-212.63940181 212.16105137 -216.55650796 204.92701764 -220.46069336 197.68481445 C-223.20801291 192.59157867 -225.97458172 187.51134414 -228.79296875 182.45703125 C-229.33195801 181.48540039 -229.87094727 180.51376953 -230.42626953 179.51269531 C-231.43765979 177.69200457 -232.45507288 175.8746394 -233.47998047 174.06152344 C-241.90883324 158.83957431 -244.51828881 144.73414045 -239.65625 127.765625 C-235.26484774 115.53784111 -225.42906047 106.38858718 -215.125 98.9296875 C-213.71504834 97.89081077 -212.30623878 96.85038263 -210.8984375 95.80859375 C-210.16979492 95.26992676 -209.44115234 94.73125977 -208.69042969 94.17626953 C-204.83481175 91.29416588 -201.04308129 88.33083438 -197.25 85.3671875 C-195.73179592 84.18225953 -194.21356723 82.99736308 -192.6953125 81.8125 C-191.6110498 80.96606934 -191.6110498 80.96606934 -190.50488281 80.10253906 C-186.52233208 77.00040105 -182.51803856 73.92681305 -178.51171875 70.85546875 C-176.40393675 69.23512807 -174.30226655 67.60898913 -172.20703125 65.97265625 C-145.48183918 45.14026123 -145.48183918 45.14026123 -128.4375 44.4921875 C-128.41171875 43.84894531 -128.3859375 43.20570312 -128.359375 42.54296875 C-127.65156175 31.26621677 -125.19748491 20.96272525 -117.4375 12.4921875 C-116.91285156 11.87730469 -116.38820313 11.26242188 -115.84765625 10.62890625 C-107.96039427 1.96219721 -97.92218251 -0.90420907 -86.5625 -1.8203125 C-75.21093101 -1.43124663 -64.87902364 2.89489895 -56.8125 10.8671875 C-55.636875 12.1665625 -55.636875 12.1665625 -54.4375 13.4921875 C-54.01339844 12.98429687 -53.58929688 12.47640625 -53.15234375 11.953125 C-39.35571326 -4.23896441 -19.80720009 -12.25253082 0 0 Z M-40.4375 23.4921875 C-44.78097399 30.79839511 -46.06983502 38.46142944 -47.5234375 46.71875 C-47.79090285 48.19521712 -48.05903165 49.6715642 -48.32778931 51.14779663 C-48.88545113 54.22765577 -49.43393214 57.30897404 -49.97607422 60.39160156 C-50.67027964 64.33355822 -51.38918157 68.2705445 -52.11519432 72.20675087 C-52.67312448 75.24869754 -53.21701411 78.29302839 -53.75682449 81.33823776 C-54.01625798 82.79105161 -54.28021754 84.24306507 -54.54887009 85.69420242 C-54.92249744 87.72308565 -55.27681335 89.75446437 -55.62646484 91.78759766 C-55.83201996 92.94039215 -56.03757507 94.09318665 -56.24935913 95.28091431 C-56.46033082 98.88187428 -55.78392888 101.17159804 -54.4375 104.4921875 C-52.65792495 109.14549329 -52.0906604 113.29314021 -52.125 118.2421875 C-52.12193848 118.94593506 -52.11887695 119.64968262 -52.11572266 120.37475586 C-52.17347747 124.64322832 -52.7716462 128.08988186 -54.3125 132.0546875 C-55.49137854 135.30211064 -55.49137854 135.30211064 -54.58203125 138.51171875 C-50.18559328 144.11039981 -44.51397402 147.04560256 -37.5625 148.0546875 C-30.50086269 147.62460743 -24.33841219 143.8464963 -19.5625 138.8046875 C-12.36575963 129.45806203 -10.95982982 118.04187154 -8.984375 106.7265625 C-8.67680015 105.00308848 -8.36862235 103.27972197 -8.05987549 101.55645752 C-7.41758764 97.95698391 -6.78317645 94.35623412 -6.15429688 90.75439453 C-5.35400472 86.17499007 -4.53326742 81.59953375 -3.70637131 77.02486801 C-3.06623398 73.46926565 -2.43764345 69.91169236 -1.81229401 66.35346222 C-1.51450588 64.66740408 -1.21317036 62.98196793 -0.90798187 61.29723358 C1.82818023 46.13284181 3.98630053 32.61030381 -4.0625 18.6796875 C-8.53274764 14.56235415 -14.27086624 11.3058708 -20.4375 10.8671875 C-28.76682802 11.49104405 -36.05745313 16.56766254 -40.4375 23.4921875 Z M-105.4375 24.4921875 C-110.16928487 31.14226353 -111.61061818 38.38448619 -111.4375 46.4921875 C-110.53128906 46.9046875 -109.62507812 47.3171875 -108.69140625 47.7421875 C-97.17872016 53.13346326 -89.59818466 59.71525049 -81.65625 69.7265625 C-78.4010251 73.78413157 -74.92961998 77.63848561 -71.4375 81.4921875 C-68.72344246 78.77812996 -68.56354059 75.92826761 -67.9296875 72.28125 C-67.79934113 71.55787445 -67.66899475 70.8344989 -67.53469849 70.08920288 C-67.2601619 68.55155436 -66.98975783 67.01316321 -66.72314453 65.47412109 C-66.31969967 63.1585107 -65.89717637 60.84698287 -65.47265625 58.53515625 C-62.13074522 42.55001577 -62.13074522 42.55001577 -66.046875 27.3046875 C-70.6012406 21.36866042 -76.10508739 17.1984722 -83.4375 15.4921875 C-92.0146578 14.39723118 -99.77306135 18.23770315 -105.4375 24.4921875 Z M20.1875 46.6796875 C17.67458404 50.62835215 16.64267057 54.65221266 15.6953125 59.1796875 C15.52843933 59.95515427 15.36156616 60.73062103 15.18963623 61.52958679 C13.0573568 71.62132424 11.21888546 81.7707552 9.41552734 91.92553711 C8.80995649 95.31894043 8.18826971 98.709159 7.56640625 102.09960938 C3.10594689 121.26053486 3.10594689 121.26053486 7.17578125 139.71484375 C12.02148581 145.92553551 17.6873459 150.19985452 25.5625 151.4921875 C32.38292543 151.87044333 38.21740662 149.68974671 43.5625 145.4921875 C52.05641233 136.4431175 52.97186626 122.96016208 55.04296875 111.23828125 C55.26068436 110.01617447 55.47839996 108.79406769 55.70271301 107.53492737 C56.15785673 104.96973479 56.61068208 102.40412987 57.0612793 99.83813477 C57.74903295 95.93517547 58.4513827 92.03501924 59.15429688 88.13476562 C59.59725099 85.62776246 60.03933768 83.12060584 60.48046875 80.61328125 C60.68979538 79.46089462 60.89912201 78.308508 61.11479187 77.12120056 C62.87745836 66.92939461 64.67152079 56.5280929 58.5625 47.4921875 C54.0562534 42.57200593 49.55607145 39.02880601 42.80078125 38.12109375 C33.7848494 37.91645978 26.44342899 39.84508508 20.1875 46.6796875 Z M-150.1875 71.1171875 C-150.87432861 71.64425293 -151.56115723 72.17131836 -152.26879883 72.71435547 C-154.33114227 74.29923169 -156.38438969 75.89538007 -158.4375 77.4921875 C-159.59153704 78.37879106 -160.74642807 79.26428462 -161.90234375 80.1484375 C-164.03621625 81.78176411 -166.16660903 83.41940385 -168.29296875 85.0625 C-171.50423134 87.54374885 -174.72025016 90.01871306 -177.9375 92.4921875 C-179.02085752 93.32548938 -180.10419088 94.15882269 -181.1875 94.9921875 C-187.6875 99.9921875 -187.6875 99.9921875 -189.3137207 101.24291992 C-190.39325152 102.07346558 -191.47251743 102.90435567 -192.55151367 103.7355957 C-195.3159161 105.86453212 -198.08515153 107.98665618 -200.86328125 110.09765625 C-203.08298206 111.78555705 -205.29257327 113.48522488 -207.4921875 115.19921875 C-209.25325492 116.57023543 -211.0257151 117.92708096 -212.8203125 119.25390625 C-219.82853996 124.75656393 -224.16374625 132.66438348 -225.5 141.4921875 C-225.784489 151.92640271 -221.61901113 160.93560885 -216.5625 169.8046875 C-215.98661133 170.84173828 -215.41072266 171.87878906 -214.81738281 172.94726562 C-213.04002482 176.13818923 -211.24267653 179.31693083 -209.4375 182.4921875 C-208.90801758 183.42466309 -208.37853516 184.35713867 -207.83300781 185.31787109 C-204.71751081 190.8018277 -204.71751081 190.8018277 -201.59619141 196.2824707 C-196.49155056 205.28347708 -191.66565944 214.42498394 -186.83810425 223.57623291 C-182.26231955 232.24473274 -177.61137511 240.85414576 -172.75 249.3671875 C-168.0229263 257.65708243 -163.37400368 265.98525486 -158.8125 274.3671875 C-158.21993408 275.44339355 -157.62736816 276.51959961 -157.0168457 277.62841797 C-155.43160877 280.55759506 -153.91029319 283.50506898 -152.4375 286.4921875 C-152.08719727 287.1924707 -151.73689453 287.89275391 -151.37597656 288.61425781 C-144.73076317 304.57982885 -151.36886061 324.43239174 -155.09151459 340.26203084 C-155.89160297 343.68555184 -156.66753538 347.11454058 -157.44580078 350.54307556 C-158.91856446 357.01631392 -160.40926593 363.4852572 -161.90821266 369.95247787 C-164.5951821 381.54616357 -167.25981926 393.14495112 -169.90457726 404.74833769 C-170.83106122 408.80927674 -171.76825909 412.86754152 -172.71450806 416.92391884 C-173.43947145 420.04140899 -174.15217003 423.16171033 -174.8671875 426.28149414 C-175.12900818 427.38970016 -175.39082886 428.49790619 -175.6605835 429.63969421 C-177.66735782 438.48231702 -178.9837013 446.18361272 -174.4375 454.4921875 C-170.98251564 459.52659329 -167.25721532 462.64554083 -161.4375 464.4921875 C-156.4383105 465.07284268 -151.45323691 465.04004179 -146.42773438 465.00976562 C-144.91245351 465.01519266 -143.39717792 465.02231857 -141.88191223 465.03100586 C-137.78473933 465.04917328 -133.68797129 465.04219914 -129.5907917 465.02948952 C-125.29306105 465.01932757 -120.99536392 465.02876404 -116.69763184 465.03503418 C-109.48178923 465.04230131 -102.26611065 465.03274748 -95.05029297 465.01367188 C-86.72045353 464.99190487 -78.39100578 464.99895691 -70.06117582 465.0209775 C-62.89573434 465.0391582 -55.73041043 465.0416768 -48.56495333 465.03122282 C-44.29129909 465.02500253 -40.01782866 465.02411175 -35.7441864 465.03736877 C-31.72535145 465.04896567 -27.70701908 465.04083213 -23.68823814 465.01779175 C-22.21772278 465.01252504 -20.74716475 465.01398339 -19.27666664 465.02284241 C-10.19245314 465.07250401 -3.70658333 464.74679114 3.55078125 458.88671875 C9.40570777 451.89189503 10.9435503 443.49043505 12.66308594 434.72143555 C12.85044815 433.7902037 13.03781036 432.85897186 13.23085022 431.89952087 C13.84219381 428.85214635 14.44495071 425.80315419 15.046875 422.75390625 C15.47070567 420.62395604 15.89480245 418.49405876 16.31915283 416.36421204 C17.2038899 411.916031 18.08413165 407.46698868 18.96142578 403.01733398 C20.08701828 397.31118126 21.22581671 391.60775409 22.36819077 385.90494061 C23.24577683 381.51472936 24.11541367 377.12297202 24.98273468 372.73072243 C25.39949725 370.62621607 25.81897442 368.52224542 26.24120331 366.41882896 C26.82887318 363.48609779 27.40557992 360.55141662 27.97949219 357.6159668 C28.15603836 356.74681641 28.33258453 355.87766602 28.51448059 354.98217773 C28.66863937 354.18192673 28.82279816 353.38167572 28.98162842 352.55717468 C29.11876629 351.86461421 29.25590416 351.17205374 29.39719772 350.45850658 C29.58273597 348.25147472 29.20933056 346.59794327 28.5625 344.4921875 C28.02584717 344.68329102 27.48919434 344.87439453 26.9362793 345.07128906 C14.28356615 349.53647841 1.79137724 353.21360029 -11.4375 355.4921875 C-12.71238281 355.71777344 -13.98726562 355.94335938 -15.30078125 356.17578125 C-23.74814927 357.44771101 -32.15441278 357.74780955 -40.6875 357.8671875 C-41.78400879 357.89329102 -42.88051758 357.91939453 -44.01025391 357.94628906 C-45.04327637 357.94854492 -46.07629883 357.95080078 -47.140625 357.953125 C-48.06520508 357.96134277 -48.98978516 357.96956055 -49.94238281 357.97802734 C-53.2132674 357.34113299 -54.39577199 356.07389115 -56.4375 353.4921875 C-57 350.5546875 -57 350.5546875 -56.4375 347.4921875 C-54.43240736 344.7377168 -52.84142907 342.78838004 -49.3996582 342.06225586 C-46.86253164 341.91260368 -44.35391362 341.90360893 -41.8125 341.9296875 C-8.76620596 341.29220108 24.75616207 333.64825477 51.5625 313.4921875 C52.39394531 312.86957031 53.22539062 312.24695313 54.08203125 311.60546875 C74.83548791 295.49294256 88.5715631 279.46628784 93.2109375 253.125 C93.51480349 251.47473993 93.82013948 249.82474993 94.12686157 248.17501831 C94.76119465 244.74294063 95.3837451 241.30902704 95.99658203 237.87304688 C96.78045475 233.47879797 97.58502443 229.08867383 98.39725304 224.69958687 C99.17561073 220.48852147 99.94363338 216.27559094 100.7109375 212.0625 C100.92983202 210.86805456 100.92983202 210.86805456 101.15314865 209.64947891 C101.56532379 207.38985958 101.97010739 205.12904469 102.37255859 202.86767578 C102.71847549 200.94340256 102.71847549 200.94340256 103.07138062 198.98025513 C103.52503691 195.75826089 103.6576213 192.73962149 103.5625 189.4921875 C102.36625 189.8221875 101.17 190.1521875 99.9375 190.4921875 C88.28213528 193.01721157 76.71661878 192.21961829 66.28515625 186.171875 C57.48897712 179.99260137 52.5056447 172.377306 48.5625 162.4921875 C47.91925781 162.76933594 47.27601563 163.04648438 46.61328125 163.33203125 C34.85420457 168.04572675 23.59411287 168.84691305 11.5625 164.4921875 C4.10967552 160.83335269 -1.42710429 156.07581326 -6.4375 149.4921875 C-7.38625 150.3584375 -8.335 151.2246875 -9.3125 152.1171875 C-18.86031087 160.25693737 -27.7541092 164.06941656 -40.28515625 163.80078125 C-49.79750606 162.86958468 -57.58420866 159.11498698 -64.4375 152.4921875 C-65.0975 151.5021875 -65.7575 150.5121875 -66.4375 149.4921875 C-69.73133949 150.62444482 -72.52218747 152.12042434 -75.4375 153.9921875 C-84.25604518 159.57562393 -92.31193506 160.23435434 -102.51171875 158.27734375 C-113.21620082 155.40471238 -119.98835859 147.95470225 -126.078125 139.09375 C-127.4464077 137.20108465 -127.4464077 137.20108465 -130.4375 136.4921875 C-132.49246393 137.63221879 -132.49246393 137.63221879 -134.5625 139.38671875 C-135.35140625 140.01255859 -136.1403125 140.63839844 -136.953125 141.28320312 C-137.77296875 141.95029297 -138.5928125 142.61738281 -139.4375 143.3046875 C-141.06198487 144.60350913 -142.6869646 145.90171214 -144.3125 147.19921875 C-145.03179687 147.7816333 -145.75109375 148.36404785 -146.4921875 148.96411133 C-148.08458749 150.2149687 -149.7526481 151.3689529 -151.4375 152.4921875 C-150.90555241 157.29409278 -149.52734737 160.60290795 -147.0625 164.7421875 C-146.45664063 165.77859375 -145.85078125 166.815 -145.2265625 167.8828125 C-143.53642766 170.69531492 -143.53642766 170.69531492 -140.4375 172.4921875 C-138.12881674 172.7992966 -138.12881674 172.7992966 -135.53320312 172.76342773 C-134.53365601 172.77361435 -133.53410889 172.78380096 -132.50427246 172.79429626 C-131.42005005 172.79643631 -130.33582764 172.79857635 -129.21875 172.80078125 C-126.89973758 172.82598836 -124.58072722 172.85138552 -122.26171875 172.87695312 C-118.62451982 172.90541055 -114.98735796 172.92942623 -111.35009766 172.94848633 C-80.12260719 173.14395349 -52.13480968 176.72948347 -28.96484375 199.97265625 C-15.4375 214.53882773 -15.4375 214.53882773 -15.4375 223.4921875 C-16.39392882 226.28790252 -16.79048978 227.16868239 -19.4375 228.4921875 C-24.42090875 229.33683305 -24.42090875 229.33683305 -27.4375 228.4921875 C-30.2588201 225.83894605 -32.25916133 222.67782172 -34.4375 219.4921875 C-36.68553464 216.74626599 -39.05015196 214.11719009 -41.4375 211.4921875 C-41.94539062 210.90695313 -42.45328125 210.32171875 -42.9765625 209.71875 C-54.99423487 196.63547122 -73.1914188 190.29983632 -90.60054016 189.31286621 C-93.90422457 189.2503684 -97.20357552 189.24183519 -100.5078125 189.25390625 C-102.97526599 189.23849797 -105.44271402 189.2221952 -107.91015625 189.20507812 C-111.74572937 189.18860694 -115.58089814 189.1797213 -119.41650391 189.18676758 C-123.15572571 189.18939511 -126.89375122 189.16123284 -130.6328125 189.12890625 C-131.76848663 189.13911301 -132.90416077 189.14931976 -134.07424927 189.15983582 C-142.8504713 189.05283662 -150.1793592 186.97236629 -156.5625 180.6796875 C-163.01625245 172.18595583 -168.38205064 162.15531824 -168.20703125 151.3359375 C-166.18255896 143.85463888 -161.33444394 138.98943419 -155.3125 134.4296875 C-154.65306396 133.91946045 -153.99362793 133.4092334 -153.31420898 132.88354492 C-136.28480325 119.86008645 -136.28480325 119.86008645 -126.44921875 120.65234375 C-118.44101267 122.00518633 -113.47768166 127.96628071 -108.8125 134.1796875 C-105.21322372 138.95972183 -101.98675159 141.7707012 -96.125 143.4296875 C-87.93663389 143.56847337 -83.07765638 140.62001976 -77.0625 135.1796875 C-76.29450073 134.48697754 -76.29450073 134.48697754 -75.51098633 133.78027344 C-71.48896209 129.95104486 -68.86791442 126.25304395 -68.00390625 120.7109375 C-68.00197266 119.36515625 -68.00197266 119.36515625 -68 117.9921875 C-67.98066406 117.095 -67.96132812 116.1978125 -67.94140625 115.2734375 C-69.03428264 109.14644546 -74.00499669 104.49503479 -78 99.9296875 C-79.0707536 98.69439262 -80.14105593 97.45870646 -81.2109375 96.22265625 C-81.74944336 95.60181152 -82.28794922 94.9809668 -82.84277344 94.34130859 C-84.83125369 92.0356213 -86.79274561 89.70812948 -88.7512207 87.37695312 C-102.66989656 69.45172461 -102.66989656 69.45172461 -122.8828125 61.1015625 C-134.16644762 60.76037267 -141.46410803 64.27215392 -150.1875 71.1171875 Z M80.03515625 72.00390625 C75.49812685 79.66992145 74.39533553 88.84107955 72.86328125 97.4765625 C72.62120864 98.8226587 72.37886835 100.16870679 72.13627625 101.51470947 C71.63166788 104.32442505 71.13235993 107.13502146 70.63647461 109.94628906 C70.00660722 113.51296892 69.36042089 117.07646909 68.70972919 120.63940048 C68.20510613 123.41618806 67.7110033 126.19477582 67.21968651 128.97394562 C66.87401287 130.91626226 66.51849935 132.8568197 66.16267395 134.79730225 C63.2279715 150.16779436 63.2279715 150.16779436 67.234375 164.78125 C71.73309403 170.57665863 77.49820235 174.72227738 84.875 175.84375 C92.49012488 176.29589804 98.62107688 173.83617385 104.41796875 168.91796875 C111.65551201 161.25153404 112.53305597 150.17856031 114.26171875 140.21875 C114.50372276 138.84543113 114.74606426 137.4721717 114.98872375 136.09896851 C115.49330034 133.23376097 115.99267903 130.36770731 116.48852539 127.50097656 C117.11958889 123.8559042 117.76533379 120.21361129 118.41527081 116.57186317 C118.91864249 113.74001589 119.41319264 110.90667894 119.90531349 108.0728569 C120.25228738 106.08527599 120.60719689 104.09908554 120.96232605 102.11294556 C123.59733933 86.97268747 123.59733933 86.97268747 119.18359375 72.72265625 C115.33863211 67.43235964 109.9812672 63.82943067 103.5625 62.4921875 C93.90909734 61.52684723 86.39278839 64.70903104 80.03515625 72.00390625 Z " fill="#000000" transform="translate(306.4375,18.5078125)"/>
<path d="M0 0 C3.11820809 1.34368748 4.2338839 2.2861577 5.85546875 5.23046875 C6.49487739 9.62640312 6.36734377 11.50143464 3.79296875 15.16796875 C0.08628639 17.77053296 -1.67218236 17.51347008 -6.14453125 17.23046875 C-9.75 16.49609375 -9.75 16.49609375 -13.33203125 15.48046875 C-14.52183594 15.155625 -15.71164063 14.83078125 -16.9375 14.49609375 C-20.29747897 13.17010936 -21.96835128 12.08968331 -24.14453125 9.23046875 C-24.87224358 6.49084587 -24.72424702 3.99832736 -24.14453125 1.23046875 C-17.79998915 -7.01743598 -8.55429242 -2.45697731 0 0 Z " fill="#000000" transform="translate(224.14453125,356.76953125)"/>
</svg>
