<?xml version="1.0" encoding="UTF-8"?>
<svg id="_图层_1" xmlns="http://www.w3.org/2000/svg" version="1.1" viewBox="0 0 329 187.3">
  <!-- Generator: Adobe Illustrator 30.0.0, SVG Export Plug-In . SVG Version: 2.1.1 Build 123)  -->
  <path d="M108.2,187.3c-3.9,0-7.1-3.2-7.1-7.1v-38.6c0-12.9-10.5-23.4-23.4-23.4s-23.4,10.5-23.4,23.4v38.6c0,3.9-3.2,7.1-7.1,7.1s-7.1-3.2-7.1-7.1v-42.7c0-20.8,16.9-37.6,37.6-37.6s37.6,16.9,37.6,37.6v42.7c0,3.9-3.2,7.1-7.1,7.1h0Z" fill="#e15500"/>
  <path d="M226.7,187.3c-3.9,0-7.1-3.2-7.1-7.1v-38.6c0-12.9-10.5-23.4-23.4-23.4s-23.4,10.5-23.4,23.4v38.6c0,3.9-3.2,7.1-7.1,7.1s-7.1-3.2-7.1-7.1v-42.7c0-20.8,16.9-37.6,37.6-37.6s37.6,16.9,37.6,37.6v42.7c0,3.9-3.2,7.1-7.1,7.1h0Z" fill="#0084ff"/>
  <path d="M226.7,187.3c3.9,0,7.1-3.2,7.1-7.1v-38.6c0-12.9,10.5-23.4,23.4-23.4s23.4,10.5,23.4,23.4v38.6c0,3.9,3.2,7.1,7.1,7.1s7.1-3.2,7.1-7.1v-42.7c0-20.8-16.9-37.6-37.6-37.6s-37.6,16.9-37.6,37.6v42.7c0,3.9,3.2,7.1,7.1,7.1h0Z" fill="#0084ff"/>
  <path d="M142.9,71.2v109c0,3.9-3.2,7.1-7.1,7.1h0c-3.9,0-7.1-3.2-7.1-7.1v-109c0-3.7,3-6.7,6.7-6.7h.7c3.7,0,6.7,3,6.7,6.7h.1Z" fill="#f6bc1c"/>
  <path d="M129.6,73.3c-3.7,0-6.7-3-6.7-6.7v-.7c0-3.7,3-6.7,6.7-6.7h12.1c3.9,0,7.1,3.2,7.1,7.1s-3.2,7.1-7.1,7.1h-12.1Z" fill="#f6bc1c"/>
  <path d="M54.8,143.1h32.4c4,0,7.3,3.2,7.3,7.2h0c0,4-3.3,7.2-7.3,7.2h-32.4c-4,0-7.3-3.2-7.3-7.2h0c0-4,3.3-7.2,7.3-7.2Z" fill="#e15500"/>
  <g>
    <path d="M155.5,30.8v1.8-1.8Z" fill="none"/>
    <path d="M167.4,28.8c-4.1,0-8.1.1-12.1.4h0c0,.5.1,1,.2,1.5v1.8h0v.6c3.9-.3,7.9-.4,11.9-.4,85.8,0,157.1,67,162.3,152.6,0,1.1.9,1.9,2,1.9s1.1-.2,1.5-.6c.3-.3.5-.7.5-1.4-5.3-87.7-78.3-156.4-166.2-156.4h0Z" fill="#0084ff"/>
    <path d="M155.3,29.3c0,.5.1,1,.2,1.5,0-.5-.1-1-.2-1.5Z" fill="#0084ff"/>
    <path d="M155.6,32.6h0v.6h0v-.6c0-.2,0,0,0,0Z" fill="#0084ff"/>
    <path d="M116.4,36.9C52.7,57.4,5.4,115.3,1.2,185.3c0,.6.3,1.1.5,1.4.4.4.9.6,1.5.6,1,0,1.9-.9,2-1.9C9.3,117.1,55.5,60.7,117.5,40.6h0c-.5-1.2-.9-2.5-1.2-3.8h0Z" fill="#0084ff"/>
    <path d="M117.5,40.6c-.5-1.2-.9-2.5-1.2-3.8.3,1.3.7,2.6,1.2,3.8Z" fill="#0084ff"/>
  </g>
  <path d="M152.1,29.6c-.2.2-.3.3-.5.5-1,.8-2.3,1.1-3.6,1-2.6-.3-4.5-2.8-4.1-5.4l1.1-8.2v-.3c.2-1,.3-2,.3-3,0-5.6-2.6-10.7-6.9-14.1-.2,6.7-3.6,12.9-9.2,16.7,0,0-.1,0-.2.1-.8.4-1.6.8-2.4,1.4-4.2,2.9-6.9,7.6-7.3,12.9v1.5c0,9.5,7.4,17.2,16.6,17.2s16.6-7.7,16.6-17.2,0-2-.2-2.9l-.2-.2Z" fill="#f6bc1c"/>
</svg>